<?xml version="1.0" standalone="no"?>
<!DOCTYPE svg PUBLIC "-//W3C//DTD SVG 20010904//EN"
 "http://www.w3.org/TR/2001/REC-SVG-20010904/DTD/svg10.dtd">
<svg version="1.0" xmlns="http://www.w3.org/2000/svg"
 width="1208.000000pt" height="278.000000pt" viewBox="0 0 1208.000000 278.000000"
 preserveAspectRatio="xMidYMid meet">

<g transform="translate(0.000000,278.000000) scale(0.100000,-0.100000)"
fill="#000000" stroke="none">
<path d="M5290 2120 c-68 -5 -73 -6 -52 -18 39 -22 79 -97 153 -287 286 -727
351 -891 357 -897 4 -4 12 -4 19 0 6 4 102 244 213 532 111 289 213 544 226
567 13 23 40 55 60 71 l37 30 -77 4 c-83 3 -125 -4 -94 -17 29 -12 42 -59 29
-110 -9 -36 -180 -490 -338 -898 -21 -52 -29 -64 -34 -50 -4 10 -50 128 -104
263 -192 488 -265 678 -277 725 -11 42 -11 48 5 60 9 7 17 15 17 18 0 9 -63
12 -140 7z"/>
<path d="M6410 2113 c0 -6 37 -13 83 -16 155 -12 254 -59 303 -144 25 -42 29
-58 29 -128 0 -93 -21 -144 -80 -193 -57 -46 -123 -63 -277 -69 l-138 -6 -2
184 -3 184 -27 3 -28 3 0 -400 0 -401 30 0 30 0 0 206 0 206 118 -4 c106 -4
122 -7 172 -33 75 -41 113 -99 199 -307 39 -95 82 -191 94 -213 30 -53 79 -85
131 -85 72 0 122 24 56 26 -59 2 -104 70 -191 290 -28 71 -61 148 -75 171 -37
64 -104 117 -175 138 l-62 19 64 16 c129 32 222 104 253 198 18 52 21 130 6
183 -18 66 -97 126 -205 156 -63 17 -305 30 -305 16z"/>
<path d="M1332 1632 c50 -122 65 -152 78 -152 13 0 28 30 78 152 2 4 -2 8 -10
8 -7 0 -25 -28 -40 -63 l-26 -62 -28 63 c-15 35 -33 62 -41 62 -8 0 -13 -4
-11 -8z"/>
<path d="M1624 1566 c-39 -85 -39 -86 -20 -86 7 0 16 9 19 20 4 16 14 20 47
20 33 0 43 -4 47 -20 5 -17 33 -30 33 -14 0 18 -71 154 -80 154 -6 0 -27 -33
-46 -74z m65 4 c10 -29 9 -30 -19 -30 -28 0 -29 1 -19 30 6 17 15 30 19 30 4
0 13 -13 19 -30z"/>
<path d="M1870 1560 l0 -80 55 0 c65 0 74 17 13 22 l-43 3 -3 68 c-4 94 -22
84 -22 -13z"/>
<path d="M2099 1598 c-2 -45 -2 -84 0 -105 1 -9 19 -13 56 -13 65 0 74 17 13
22 -36 2 -44 7 -46 26 -3 20 1 22 37 22 23 0 41 5 41 10 0 6 -18 10 -41 10
-36 0 -40 2 -37 23 2 18 10 23 46 25 61 5 52 22 -13 22 l-55 0 -1 -42z"/>
<path d="M2340 1560 c0 -44 4 -80 9 -80 5 0 11 10 13 23 4 32 41 34 62 3 9
-15 23 -26 31 -26 14 0 13 3 0 24 -15 23 -15 27 0 50 32 48 -3 86 -81 86 l-34
0 0 -80z m75 50 c20 -7 26 -16 23 -33 -2 -18 -10 -23 -40 -25 -36 -3 -38 -2
-38 26 0 44 10 49 55 32z"/>
<path d="M2600 1560 c0 -47 4 -80 10 -80 6 0 10 33 10 80 0 47 -4 80 -10 80
-6 0 -10 -33 -10 -80z"/>
<path d="M2774 1566 c-39 -85 -39 -86 -20 -86 7 0 16 9 19 20 8 30 79 28 100
-2 8 -13 18 -20 22 -16 9 9 -61 158 -75 158 -6 0 -27 -33 -46 -74z m64 9 c16
-35 16 -35 -18 -35 -16 0 -30 2 -30 5 0 11 24 55 30 55 4 0 12 -11 18 -25z"/>
<path d="M3170 1560 c0 -64 3 -80 15 -80 9 0 15 9 15 25 0 18 5 25 19 25 11 0
28 -11 39 -25 27 -35 50 -33 27 1 -16 25 -16 28 -1 36 9 5 16 22 16 38 0 38
-32 60 -87 60 l-43 0 0 -80z m102 37 c13 -20 -12 -47 -42 -47 -28 0 -30 3 -30
36 0 35 1 35 33 29 17 -4 35 -12 39 -18z"/>
<path d="M3430 1581 c0 -48 4 -65 20 -81 25 -25 72 -26 94 -2 21 24 28 133 9
139 -10 3 -13 -11 -13 -50 0 -55 -16 -87 -43 -87 -27 0 -36 18 -39 74 -2 36
-8 61 -15 64 -10 3 -13 -13 -13 -57z"/>
<path d="M3706 1621 c-27 -30 -12 -59 35 -71 30 -8 39 -16 37 -28 -3 -13 -13
-17 -46 -15 -42 2 -56 -9 -26 -21 51 -20 108 5 102 44 -2 18 -14 27 -46 38
-31 10 -42 19 -40 31 3 12 13 15 41 14 38 -2 50 10 21 21 -29 11 -61 6 -78
-13z"/>
<path d="M3939 1628 c-1 -18 -1 -88 0 -120 2 -50 21 -29 21 22 0 28 3 50 8 50
4 -1 24 -23 45 -50 21 -28 43 -50 48 -50 5 0 9 36 9 80 0 47 -4 80 -10 80 -5
0 -10 -22 -10 -50 0 -27 -4 -50 -8 -50 -4 0 -25 23 -46 50 -38 50 -55 61 -57
38z"/>
<path d="M4225 1564 c-40 -89 -39 -84 -21 -84 8 0 18 9 21 20 9 30 77 28 98
-2 8 -13 18 -20 22 -16 11 10 -56 158 -72 158 -7 0 -28 -34 -48 -76z m63 11
c16 -35 16 -35 -17 -35 -28 0 -29 1 -18 30 14 37 20 37 35 5z"/>
<path d="M4470 1560 c0 -64 3 -80 15 -80 9 0 15 9 15 24 0 39 19 41 54 7 46
-44 64 -39 27 8 -37 47 -38 51 -6 81 14 13 25 27 25 32 0 18 -20 6 -59 -34
l-41 -43 0 43 c0 31 -4 42 -15 42 -12 0 -15 -16 -15 -80z"/>
<path d="M7600 1631 c0 -5 13 -40 29 -78 41 -95 59 -96 97 -1 16 40 31 76 32
80 2 5 -4 8 -12 8 -10 0 -26 -22 -42 -57 l-26 -58 -25 58 c-14 31 -32 57 -39
57 -8 0 -14 -4 -14 -9z"/>
<path d="M7887 1560 c-32 -72 -34 -80 -17 -80 10 0 22 9 25 20 5 15 15 20 41
20 23 0 38 -6 46 -20 12 -19 38 -28 38 -12 0 4 -14 40 -32 80 -21 47 -37 72
-48 72 -11 0 -29 -27 -53 -80z m73 -7 c0 -7 -9 -13 -20 -13 -22 0 -23 3 -13
39 6 23 7 23 20 6 7 -11 13 -25 13 -32z"/>
<path d="M8140 1560 l0 -80 55 0 c42 0 55 3 55 15 0 11 -11 15 -40 15 l-40 0
0 65 c0 51 -3 65 -15 65 -12 0 -15 -16 -15 -80z"/>
<path d="M8370 1560 l0 -81 55 3 c66 4 78 22 18 26 -35 3 -43 7 -43 23 0 15 7
19 35 19 19 0 35 5 35 10 0 6 -16 10 -35 10 -28 0 -35 4 -35 20 0 17 7 20 40
20 29 0 40 4 40 15 0 12 -13 15 -55 15 l-55 0 0 -80z"/>
<path d="M8610 1560 c0 -64 3 -80 15 -80 8 0 15 9 15 20 0 33 30 37 52 7 11
-15 26 -27 34 -27 17 0 18 12 2 28 -10 10 -10 17 0 32 33 54 -1 100 -75 100
l-43 0 0 -80z m98 23 c3 -17 -3 -24 -22 -29 -33 -8 -46 1 -46 32 0 22 4 25 33
22 24 -2 33 -8 35 -25z"/>
<path d="M8870 1560 c0 -64 3 -80 15 -80 12 0 15 16 15 80 0 64 -3 80 -15 80
-12 0 -15 -16 -15 -80z"/>
<path d="M9051 1569 c-17 -40 -31 -76 -31 -80 0 -17 29 -9 34 9 9 27 72 29 88
2 7 -11 20 -20 30 -20 14 0 11 12 -19 80 -46 102 -60 103 -102 9z m69 -16 c0
-7 -9 -13 -20 -13 -22 0 -23 3 -13 39 6 23 7 23 20 6 7 -11 13 -25 13 -32z"/>
<path d="M9450 1560 c0 -73 2 -80 20 -80 15 0 20 7 20 25 0 15 6 25 15 25 8 0
22 -11 31 -25 9 -14 25 -25 35 -25 18 0 19 1 3 25 -16 24 -15 27 1 45 39 43
-6 90 -85 90 l-40 0 0 -80z m98 26 c4 -20 -13 -36 -40 -36 -13 0 -18 8 -18 31
0 27 3 30 27 27 18 -2 29 -10 31 -22z"/>
<path d="M9710 1580 c0 -70 21 -100 70 -100 49 0 70 30 70 100 0 47 -3 60 -15
60 -11 0 -15 -11 -15 -42 0 -67 -9 -88 -36 -88 -30 0 -44 27 -44 84 0 34 -4
46 -15 46 -12 0 -15 -13 -15 -60z"/>
<path d="M9986 1621 c-27 -30 -16 -54 32 -71 55 -19 57 -43 2 -39 -43 3 -63
-7 -40 -21 38 -24 120 3 120 38 0 15 -33 39 -62 46 -42 10 -37 38 6 35 39 -4
58 7 36 21 -26 16 -76 11 -94 -9z"/>
<path d="M10220 1560 c0 -64 3 -80 15 -80 11 0 15 12 15 48 l1 47 42 -47 c24
-27 48 -48 55 -48 8 0 12 25 12 80 0 64 -3 80 -15 80 -11 0 -15 -12 -15 -45 0
-25 -3 -45 -7 -45 -5 1 -24 21 -43 45 -51 65 -60 60 -60 -35z"/>
<path d="M10519 1593 c-52 -117 -51 -113 -30 -113 10 0 21 9 24 20 4 15 14 20
41 20 25 0 38 -6 46 -20 6 -11 18 -20 26 -20 18 0 17 4 -24 97 -34 78 -53 81
-83 16z m56 -30 c5 -20 3 -23 -19 -23 -24 0 -24 2 -14 31 11 32 21 29 33 -8z"/>
<path d="M10759 1630 c-1 -5 -1 -17 -1 -25 0 -101 3 -125 17 -125 9 0 15 9 15
24 0 39 20 42 49 7 14 -17 34 -31 44 -31 17 0 16 3 -5 31 -13 17 -27 37 -33
45 -7 9 -2 21 18 42 53 55 21 60 -35 5 l-38 -37 0 37 c0 26 -4 37 -15 37 -8 0
-16 -4 -16 -10z"/>
<path d="M4975 620 c-3 -5 1 -10 10 -10 9 0 13 5 10 10 -3 6 -8 10 -10 10 -2
0 -7 -4 -10 -10z"/>
<path d="M5455 620 c-3 -5 1 -10 10 -10 9 0 13 5 10 10 -3 6 -8 10 -10 10 -2
0 -7 -4 -10 -10z"/>
<path d="M5930 620 c0 -5 5 -10 10 -10 6 0 10 5 10 10 0 6 -4 10 -10 10 -5 0
-10 -4 -10 -10z"/>
<path d="M6680 620 c0 -5 5 -10 10 -10 6 0 10 5 10 10 0 6 -4 10 -10 10 -5 0
-10 -4 -10 -10z"/>
<path d="M7270 614 c0 -8 5 -12 10 -9 6 3 10 10 10 16 0 5 -4 9 -10 9 -5 0
-10 -7 -10 -16z"/>
<path d="M6587 601 c-3 -14 -11 -17 -30 -14 -21 4 -29 0 -38 -21 -15 -33 1
-55 41 -54 26 1 30 5 39 50 13 59 13 58 2 58 -5 0 -11 -8 -14 -19z m-7 -46 c0
-9 -7 -18 -16 -22 -18 -7 -39 11 -30 26 11 17 46 13 46 -4z"/>
<path d="M4671 573 c-18 -63 -12 -81 15 -45 13 16 15 16 28 0 7 -10 19 -18 27
-18 10 0 10 3 1 12 -9 9 -8 16 4 29 26 29 14 54 -28 57 -35 3 -37 1 -47 -35z
m64 7 c0 -8 -10 -16 -22 -18 -22 -3 -32 16 -16 32 12 11 38 2 38 -14z"/>
<path d="M5337 598 c-2 -7 -4 -29 -3 -48 1 -25 6 -36 19 -38 9 -2 17 1 17 7 0
6 -4 11 -10 11 -16 0 -11 28 7 38 15 9 15 11 1 26 -20 19 -24 20 -31 4z"/>
<path d="M6226 579 c-9 -45 -7 -69 4 -69 6 0 10 7 10 15 0 8 6 15 14 15 8 0
16 -7 20 -15 8 -23 28 -18 21 5 -3 11 -2 20 3 20 11 0 20 30 15 48 -3 7 -21
12 -43 12 -34 0 -38 -3 -44 -31z m64 1 c0 -13 -7 -20 -20 -20 -13 0 -20 7 -20
20 0 13 7 20 20 20 13 0 20 -7 20 -20z"/>
<path d="M7154 597 c-6 -7 -9 -29 -6 -50 3 -29 8 -37 25 -37 16 0 18 3 9 12
-15 15 -16 45 -1 50 10 3 2 38 -10 38 -3 -1 -11 -6 -17 -13z"/>
<path d="M4834 582 c-17 -11 -22 -35 -12 -54 9 -19 58 -25 58 -8 0 6 -9 10
-20 10 -11 0 -20 5 -20 10 0 6 14 10 30 10 32 0 37 9 18 28 -13 13 -37 15 -54
4z m41 -12 c3 -5 -3 -10 -15 -10 -12 0 -18 5 -15 10 3 6 10 10 15 10 5 0 12
-4 15 -10z"/>
<path d="M4967 573 c-3 -10 -8 -30 -11 -45 -4 -16 -11 -28 -16 -28 -6 0 -10
-4 -10 -10 0 -5 7 -10 15 -10 16 0 28 24 38 78 7 33 -8 46 -16 15z"/>
<path d="M5060 576 c-19 -24 -8 -61 19 -64 13 -2 28 1 34 7 8 8 3 11 -16 11
-15 0 -27 5 -27 10 0 6 14 10 30 10 32 0 37 9 18 28 -16 16 -43 15 -58 -2z
m45 -6 c3 -5 -3 -10 -15 -10 -12 0 -18 5 -15 10 3 6 10 10 15 10 5 0 12 -4 15
-10z"/>
<path d="M5200 576 c-19 -24 -8 -61 19 -64 13 -2 28 1 34 7 8 8 3 11 -16 11
-20 0 -27 5 -27 20 0 16 7 20 31 20 17 0 28 4 24 10 -9 15 -51 12 -65 -4z"/>
<path d="M5446 578 c-13 -42 -15 -68 -6 -68 11 0 14 7 24 53 6 27 -11 40 -18
15z"/>
<path d="M5542 578 c-22 -22 -15 -57 13 -64 33 -8 57 12 53 45 -2 19 -10 27
-28 29 -14 2 -31 -3 -38 -10z m46 -25 c-5 -26 -38 -29 -38 -4 0 15 6 21 21 21
14 0 19 -5 17 -17z"/>
<path d="M5676 559 c-8 -42 -8 -49 3 -49 5 0 11 14 15 31 4 22 11 30 23 27 13
-2 17 -11 15 -31 -5 -37 14 -34 22 4 8 41 1 49 -38 49 -29 0 -34 -4 -40 -31z"/>
<path d="M5915 554 c-6 -33 -1 -54 9 -43 10 10 17 79 8 79 -5 0 -13 -16 -17
-36z"/>
<path d="M6013 583 c-20 -8 -15 -29 10 -41 l22 -11 -22 0 c-13 -1 -23 -6 -23
-12 0 -6 12 -9 27 -7 35 4 45 37 14 45 -11 3 -18 10 -15 15 3 5 12 7 20 4 7
-3 16 -1 19 4 6 10 -30 12 -52 3z"/>
<path d="M6379 566 c-9 -20 -9 -29 1 -41 14 -17 60 -21 60 -5 0 6 -12 10 -26
10 -14 0 -23 4 -19 10 3 6 17 10 31 10 36 0 28 34 -9 38 -21 3 -29 -2 -38 -22z
m46 4 c3 -5 -1 -10 -10 -10 -9 0 -13 5 -10 10 3 6 8 10 10 10 2 0 7 -4 10 -10z"/>
<path d="M6670 573 c0 -10 -3 -28 -6 -40 -4 -13 -2 -23 4 -23 5 0 14 18 20 40
8 32 7 40 -4 40 -8 0 -14 -8 -14 -17z"/>
<path d="M6760 573 c0 -10 -3 -28 -6 -40 -9 -34 12 -28 25 7 5 17 15 30 20 30
6 0 11 5 11 10 0 6 -11 10 -25 10 -17 0 -25 -6 -25 -17z"/>
<path d="M6869 566 c-9 -20 -9 -29 1 -41 14 -17 60 -21 60 -5 0 6 -12 10 -26
10 -14 0 -23 4 -19 10 3 6 17 10 31 10 36 0 28 34 -9 38 -21 3 -29 -2 -38 -22z
m46 4 c3 -5 -1 -10 -10 -10 -9 0 -13 5 -10 10 3 6 8 10 10 10 2 0 7 -4 10 -10z"/>
<path d="M7010 575 c-25 -30 9 -76 46 -60 17 7 17 8 -6 14 -34 9 -32 35 3 39
15 2 25 8 22 13 -9 14 -51 11 -65 -6z"/>
<path d="M7255 554 c-6 -33 -1 -54 9 -43 10 10 17 79 8 79 -5 0 -13 -16 -17
-36z"/>
<path d="M7352 578 c-25 -25 -6 -68 29 -68 27 0 50 39 38 62 -11 20 -49 24
-67 6z m48 -28 c0 -13 -7 -20 -20 -20 -19 0 -27 20 -13 33 13 14 33 6 33 -13z"/>
<path d="M7496 578 c-15 -47 -16 -70 -4 -66 7 3 15 15 18 29 3 13 14 25 24 27
16 4 18 -1 13 -27 -4 -17 -2 -31 3 -31 12 0 24 46 16 65 -7 18 -65 20 -70 3z"/>
</g>
</svg>
